Coordinates
version=1
nRows=10
nColumns=63
inDegrees=yes

Units are S.I. units (second, meters, Newtons, ...)
If the header above contains a line with 'inDegrees', this indicates whether rotational values are in degrees (yes) or radians (no).

endheader
time	pelvis_tilt	pelvis_list	pelvis_rotation	pelvis_tx	pelvis_ty	pelvis_tz	hip_flexion_r	hip_adduction_r	hip_rotation_r	knee_angle_r	knee_angle_r_beta	ankle_angle_r	subtalar_angle_r	mtp_angle_r	hip_flexion_l	hip_adduction_l	hip_rotation_l	knee_angle_l	knee_angle_l_beta	ankle_angle_l	subtalar_angle_l	mtp_angle_l	L5_S1_Flex_Ext	L5_S1_Lat_Bending	L5_S1_axial_rotation	L4_L5_Flex_Ext	L4_L5_Lat_Bending	L4_L5_axial_rotation	L3_L4_Flex_Ext	L3_L4_Lat_Bending	L3_L4_axial_rotation	L2_L3_Flex_Ext	L2_L3_Lat_Bending	L2_L3_axial_rotation	L1_L2_Flex_Ext	L1_L2_Lat_Bending	L1_L2_axial_rotation	L1_T12_Flex_Ext	L1_T12_Lat_Bending	L1_T12_axial_rotation	Abs_r3	Abs_r2	Abs_r1	Abs_t1	Abs_t2	neck_flexion	neck_bending	neck_rotation	arm_flex_r	arm_add_r	arm_rot_r	elbow_flex_r	pro_sup_r	wrist_flex_r	wrist_dev_r	arm_flex_l	arm_add_l	arm_rot_l	elbow_flex_l	pro_sup_l	wrist_flex_l	wrist_dev_l
      1.13559322	     -4.06187947	     -2.35503552	     80.74906418	      0.34682211	      0.91978215	      0.59144017	      2.50349716	     -3.75337225	     -2.51175481	      7.91594690	      0.13815934	     37.39695127	     12.12032178	      0.00000000	      2.38859852	      0.27211603	     -8.12371058	      7.47774417	      0.13051126	     36.08248675	     12.97744773	      0.00000000	      0.16559029	     -0.47635898	      1.82691439	      0.30751772	     -0.63355745	      1.94109654	      0.27204828	     -1.15821923	      1.94109654	      0.18925314	     -1.15821923	      1.59855010	      0.15376714	     -0.97139124	      1.48436795	      0.09461829	     -0.73788007	      1.37018580	      1.18279486	     -5.38866810	     10.16074979	      0.00000000	      0.00000000	     27.89774653	     -7.43935095	    -22.81790340	     53.01100838	    -10.46170125	      7.47544390	    132.12250592	     85.80837670	      9.08314025	     19.42493441	     19.86531224	    -13.49854656	     72.58776192	     50.75157529	     59.06262500	     -5.78233784	     -5.20890055
      1.15254237	     -4.03924180	     -2.07609287	     82.07040422	      0.34531316	      0.92013986	      0.59003825	      1.64145482	     -3.70884272	     -1.96328220	      7.22184481	      0.12604497	     37.01489409	      9.87472469	      0.00000000	      2.10355258	      0.43942644	     -5.58822158	      7.43913467	      0.12983739	     35.74817086	     11.43157989	      0.00000000	      0.13912883	     -0.49489086	      1.65484640	      0.25837615	     -0.65820484	      1.75827430	      0.22857475	     -1.20327763	      1.75827430	      0.15901034	     -1.20327763	      1.44799060	      0.12919503	     -1.00918143	      1.34456270	      0.07949821	     -0.76658593	      1.24113480	      0.99378331	     -5.59830433	      9.20375923	      0.00000000	      0.00000000	     27.85999172	     -6.26405910	    -22.11446222	     52.79600511	    -10.88754015	      7.33466541	    133.19005152	     84.64362444	      8.45129736	     23.92293030	     19.93179754	    -13.54078732	     72.01515090	     50.55069366	     58.20942193	     -3.33420154	     -4.23502881
      1.16949153	     -3.98532684	     -1.90287396	     83.53712177	      0.34356525	      0.92051002	      0.58894336	      0.94306484	     -3.64731982	     -2.31912528	      6.67119538	      0.11643432	     36.72105894	      8.57434799	      0.00000000	      2.04403097	      0.45402036	     -4.40588524	      7.60354428	      0.13270688	     35.80773334	     11.72489316	      0.00000000	      0.12300013	     -0.50415187	      1.43095054	      0.22842354	     -0.67052199	      1.52038495	      0.20207692	     -1.22579487	      1.52038495	      0.14057685	     -1.22579487	      1.25208172	      0.11421792	     -1.02806650	      1.16264731	      0.07028228	     -0.78093125	      1.07321290	      0.87857764	     -5.70306684	      7.95851760	      0.00000000	      0.00000000	     27.76551327	     -5.36310853	    -21.10606092	     51.84408724	    -11.54126164	      7.49413314	    133.33692322	     85.29122991	      8.39674627	     21.72190185	     20.04011215	    -13.60791524	     71.98240769	     50.35686721	     58.32832594	     -2.66832387	     -4.20146809
      1.18644068	     -3.79961468	     -1.71765560	     84.85010041	      0.34179931	      0.92097992	      0.58798962	      0.31120607	     -3.47963670	     -3.28917469	      6.27189817	      0.10946527	     36.54844122	      8.24198151	      0.00000000	      1.97805977	      0.31206815	     -3.72054080	      7.78219592	      0.13582494	     36.02878929	     12.41976338	      0.00000000	      0.10371093	     -0.49300154	      1.24049619	      0.19260157	     -0.65569205	      1.31802720	      0.17038669	     -1.19868395	      1.31802720	      0.11853122	     -1.19868395	      1.08543417	      0.09630597	     -1.00532875	      1.00790315	      0.05926043	     -0.76365939	      0.93037214	      0.74079680	     -5.57693207	      6.89926766	      0.00000000	      0.00000000	     27.58837314	     -4.48990234	    -19.90704089	     50.40204497	    -12.39365336	      7.31626667	    133.35449984	     86.01687938	      9.55284870	     18.62806071	     20.24670566	    -13.48517751	     72.29580478	     50.02055668	     58.60036861	     -2.37976891	     -4.27351507
      1.20338983	     -3.68129809	     -1.52760553	     86.19236746	      0.33996354	      0.92153168	      0.58742200	     -0.22577178	     -3.36485141	     -4.24006738	      6.03052153	      0.10525246	     36.43922766	      7.81107229	      0.00000000	      2.00203188	      0.23022818	     -3.17544007	      8.05382129	      0.14056570	     36.25222247	     13.16275381	      0.00000000	      0.07991253	     -0.48185844	      0.97119967	      0.14840555	     -0.64087172	      1.03189965	      0.13128829	     -1.17159061	      1.03189965	      0.09133203	     -1.17159061	      0.84979971	      0.07420677	     -0.98260573	      0.78909973	      0.04566202	     -0.74639872	      0.72839975	      0.57080718	     -5.45087904	      5.40152121	      0.00000000	      0.00000000	     27.31817076	     -3.86478290	    -18.27697551	     48.59375828	    -13.04150238	      7.36018897	    132.34199221	     87.06226561	     11.38950480	     12.11569911	     20.08526586	    -13.44478969	     71.89510764	     49.78702373	     58.70981104	     -2.53970043	     -4.46853926
      1.22033898	     -3.53853740	     -1.34413223	     87.44693291	      0.33843831	      0.92212103	      0.58695623	     -0.72219310	     -3.19258317	     -5.14608389	      5.82946998	      0.10174344	     36.29072727	      7.39521238	      0.00000000	      2.01985414	      0.10190614	     -2.65517755	      8.28739825	      0.14464239	     36.48084400	     13.85597834	      0.00000000	      0.05544819	     -0.46800943	      0.72349600	      0.10297283	     -0.62245254	      0.76871450	      0.09109583	     -1.13791812	      0.76871450	      0.06337173	     -1.13791812	      0.63305900	      0.05148919	     -0.95436482	      0.58784050	      0.03168309	     -0.72494660	      0.54262200	      0.39606085	     -5.29421622	      4.02386768	      0.00000000	      0.00000000	     26.90721580	     -3.08977750	    -16.66965947	     46.41543530	    -13.80407948	      7.50130303	    131.04823642	     87.63007259	     12.38941652	      5.35574673	     20.04484971	    -13.39308566	     71.58138652	     49.64009340	     59.16010358	     -2.85962609	     -4.34984647
      1.23728814	     -3.52833495	     -1.23040311	     88.52093843	      0.33735306	      0.92258510	      0.58668829	     -1.05314103	     -3.14105239	     -5.96984871	      5.74310934	      0.10023617	     36.20252623	      7.01917078	      0.00000000	      2.10982150	      0.08934013	     -2.28658001	      8.52134364	      0.14872550	     36.64564044	     14.45935264	      0.00000000	      0.03676305	     -0.46904982	      0.50097273	      0.06827266	     -0.62383625	      0.53228353	      0.06039802	     -1.14044772	      0.53228353	      0.04201649	     -1.14044772	      0.43835114	      0.03413817	     -0.95648638	      0.40704035	      0.02100641	     -0.72655816	      0.37572955	      0.26259480	     -5.30598532	      2.78626005	      0.00000000	      0.00000000	     26.43501057	     -2.38983036	    -15.05864581	     44.05065296	    -14.58176917	      7.91061979	    129.44805120	     87.96917890	     12.28741891	     -1.29809525	     19.92022239	    -13.41715467	     70.90647353	     49.64427832	     59.84676672	     -3.33726252	     -4.10645291
      1.25423729	     -3.58500594	     -1.24235698	     89.36932672	      0.33663013	      0.92271019	      0.58639721	     -1.19741754	     -3.15849105	     -6.66303157	      5.70661096	      0.09959915	     36.16489043	      6.72471579	      0.00000000	      2.27904891	      0.13221857	     -2.08196705	      8.69961613	      0.15183695	     36.79923776	     15.01027134	      0.00000000	      0.03558626	     -0.47732146	      0.34903572	      0.06608725	     -0.63483754	      0.37085045	      0.05846467	     -1.16055940	      0.37085045	      0.04067154	     -1.16055940	      0.30540625	      0.03304540	     -0.97335392	      0.28359152	      0.02033399	     -0.73937094	      0.26177679	      0.25418910	     -5.39955582	      1.94123196	      0.00000000	      0.00000000	     26.09846426	     -1.67261258	    -13.43834164	     41.51496679	    -15.68956387	      8.53474305	    127.97268409	     88.21931005	     10.24530236	     -6.35677069	     19.69545790	    -13.39196780	     69.88465711	     49.76997206	     61.17205070	     -3.82094435	     -3.67482255
      1.27118644	     -3.70077711	     -1.19138442	     89.77001439	      0.33655838	      0.92249894	      0.58597363	     -1.30602228	     -3.24851219	     -6.96343128	      5.79151541	      0.10108101	     36.29337612	      6.47887641	      0.00000000	      2.30651871	      0.23533635	     -1.97266407	      8.84341228	      0.15434666	     36.99252886	     15.12826137	      0.00000000	      0.01644881	     -0.49469888	      0.35882314	      0.03054709	     -0.65794951	      0.38124958	      0.02702375	     -1.20281086	      0.38124958	      0.01879935	     -1.20281086	      0.31397025	      0.01527437	     -1.00878996	      0.29154380	      0.00939885	     -0.76628857	      0.26911735	      0.11749222	     -5.59613268	      1.99566665	      0.00000000	      0.00000000	     26.11727425	     -1.60293985	    -12.50195814	     38.70872319	    -16.88713062	      7.99584537	    127.08230991	     88.13117779	     10.02261947	     -6.74016880	     19.89855513	    -13.32695942	     69.73276576	     49.96462770	     61.39053467	     -3.96590938	     -3.65512613
      1.28813559	     -3.92591849	     -1.36472772	     90.79711378	      0.33599701	      0.92186811	      0.58555721	     -1.33948495	     -3.40758866	     -7.69980978	      5.70224909	      0.09952302	     36.38173482	      6.05078752	      0.00000000	      2.68768622	      0.43164222	     -1.50857881	      9.17942197	      0.16021114	     37.20738479	     15.69079795	      0.00000000	      0.03331638	     -0.53620670	      0.25744133	      0.06187185	     -0.71315492	      0.27353141	      0.05473548	     -1.30373298	      0.27353141	      0.03807729	     -1.30373298	      0.22526117	      0.03093759	     -1.09343271	      0.20917108	      0.01903698	     -0.83058418	      0.19308100	      0.23797559	     -6.06567748	      1.43181145	      0.00000000	      0.00000000	     26.51386588	      0.25136083	    -10.46505119	     35.63135392	    -18.23880413	      8.17220177	    125.70638246	     88.31376539	      6.24271056	     -7.60021369	     20.17772220	    -13.43644771	     69.84999115	     50.37514665	     63.15090415	     -5.06288248	     -3.34088199
